<?xml version="1.0" encoding="utf-8"?>
<!-- Generator: Adobe Illustrator 21.1.0, SVG Export Plug-In . SVG Version: 6.00 Build 0)  -->
<svg version="1.1" id="Layer_1" xmlns="http://www.w3.org/2000/svg" xmlns:xlink="http://www.w3.org/1999/xlink" x="0px" y="0px"
	 viewBox="0 0 250 250" style="enable-background:new 0 0 250 250;" xml:space="preserve">
<style type="text/css">
	.st0{fill:#FFFFFF;}
</style>
<g>
	<path class="st0" d="M173.2,146c0,1.5-0.9,3-2.4,3h-28.2c-1.2,0-2.4-1.2-2.4-3v-5.7c0-1.5,1.3-2.7,2.8-2.7h27.8
		c1.2,0,2.4,1.2,2.4,3V146L173.2,146z M107.7,137.6h-7.5v-9c0-1.2-1.3-2.4-3.1-2.4h-5.9c-1.6,0-2.8,1.2-2.8,2.7v8.7h-9.3
		c-1.3,0-2.5,1.2-2.5,3v5.7c0,1.5,1.3,2.7,2.8,2.7h8.9v7.2c-0.3,1.1,0.9,2.3,2.6,2l0,0h5.2c1.4,0.3,4-2,4-2V149h7.5
		c1.2-1.3,2.4-2.4,1.9-4l0,0v-5C110.1,138.6,107.7,137.6,107.7,137.6z M210.3,73.6H192v-9.8c0-3.4-2.8-6.2-6.4-6.2h-22.6
		c-3.5,0-6.4,2.8-6.4,6.2v9.8H95.5v-9.8c0-3.4-2.8-6.2-6.4-6.2H64.3c-3.5,0-6.4,2.8-6.4,6.2v9.8H40.5c0,0-10.6,3.3-10.8,9v18.3
		c0.2,4.1,2.8,7.8,7.1,9.4v72.8c-0.5,5.3,9.6,9.3,9.6,9.3h158.1c0,0,10.1-3.8,8.7-9.3v-72.8c5.1-1.6,7.7-5.3,7.1-9.4V82.6
		C220.9,76.9,210.3,73.6,210.3,73.6z M163.8,64.5h21.2v9.1h-21.2V64.5z M67.3,64.5h21.2v9.1H67.3V64.5z M213.1,101
		c0,1.2-1.2,2.6-2.8,2.6l-4.2,0.2v79.4c0,1.1-0.9,2.3-2.4,2.3H46.3c-1.3,0-2.5-0.9-2.5-2.3v-79l-4-0.2c-1.5,0-3-1.4-3-2.7V83.2
		c0-1.5,1.3-2.7,2.8-2.7h19.3h36.5h59.5h36.5h18.6c1.6-0.8,2.8,0.3,3.3,1.9L213.1,101L213.1,101z"/>
</g>
</svg>
